<svg width="160" height="160" viewBox="0 0 160 160" fill="none" xmlns="http://www.w3.org/2000/svg" role="img" aria-labelledby="teksturaMarkTitle teksturaMarkDesc">
  <title id="teksturaMarkTitle">Tekstura mark</title>
  <desc id="teksturaMarkDesc">Стилизованный знак дерево и лестница в золотисто-бронзовом стиле.</desc>
  <defs>
    <linearGradient id="metalMain" x1="18" y1="132" x2="142" y2="24" gradientUnits="userSpaceOnUse">
      <stop offset="0" stop-color="#6D4A23"/>
      <stop offset="0.26" stop-color="#B7833A"/>
      <stop offset="0.5" stop-color="#F1D18B"/>
      <stop offset="0.73" stop-color="#A56F2C"/>
      <stop offset="1" stop-color="#E6BD70"/>
    </linearGradient>
    <linearGradient id="metalSoft" x1="34" y1="136" x2="132" y2="36" gradientUnits="userSpaceOnUse">
      <stop offset="0" stop-color="#4A2D15"/>
      <stop offset="0.4" stop-color="#9C6A2B"/>
      <stop offset="0.7" stop-color="#D9AD64"/>
      <stop offset="1" stop-color="#7A4F1F"/>
    </linearGradient>
    <radialGradient id="leafGlow" cx="0" cy="0" r="1" gradientUnits="userSpaceOnUse" gradientTransform="translate(81 58) rotate(90) scale(64)">
      <stop offset="0" stop-color="#FFE5AE" stop-opacity="0.9"/>
      <stop offset="0.55" stop-color="#D9A95E" stop-opacity="0.46"/>
      <stop offset="1" stop-color="#8A5D2A" stop-opacity="0"/>
    </radialGradient>
    <filter id="softGlow" x="6" y="10" width="148" height="144" filterUnits="userSpaceOnUse" color-interpolation-filters="sRGB">
      <feGaussianBlur stdDeviation="4" result="blur"/>
      <feColorMatrix in="blur" type="matrix" values="0 0 0 0 0.78 0 0 0 0 0.56 0 0 0 0 0.24 0 0 0 0.42 0" result="goldGlow"/>
      <feBlend in="SourceGraphic" in2="goldGlow" mode="screen"/>
    </filter>
  </defs>

  <g filter="url(#softGlow)">
    <path d="M80 20L108 54H94L118 84H100L124 116H36L60 84H42L66 54H52L80 20Z" fill="url(#leafGlow)"/>

    <path d="M80 26L103 56H90L111 84H95L114 110H46L65 84H49L70 56H57L80 26Z" fill="url(#metalMain)" stroke="#F7DFA5" stroke-opacity="0.45" stroke-width="2" stroke-linejoin="round"/>

    <path d="M77 58H84V112H77V58Z" fill="url(#metalSoft)"/>

    <path d="M58 108H102" stroke="#F2D392" stroke-width="4" stroke-linecap="round"/>
    <path d="M62 98H98" stroke="#E7C079" stroke-width="4" stroke-linecap="round"/>
    <path d="M66 88H94" stroke="#D8A75D" stroke-width="4" stroke-linecap="round"/>
    <path d="M70 78H90" stroke="#C58C44" stroke-width="4" stroke-linecap="round"/>

    <path d="M57 118C64 112 70 101 74 88C77 77 79 66 80 52" stroke="#EFCF8C" stroke-width="3" stroke-linecap="round" opacity="0.82"/>
    <path d="M103 118C96 112 90 101 86 88C83 77 81 66 80 52" stroke="#BD8745" stroke-width="3" stroke-linecap="round" opacity="0.82"/>
  </g>
</svg>
