<svg class="tekstura-preview-card" viewBox="0 0 1100 760" xmlns="http://www.w3.org/2000/svg" role="img" aria-label="stair-turn-180-card: П-образная с площадкой">
  <defs>
    <linearGradient id="card-bg" x1="0" y1="0" x2="1" y2="1"><stop stop-color="#17120d"/><stop offset="1" stop-color="#26201a"/></linearGradient>
    <marker id="arrow" viewBox="0 0 10 10" refX="8" refY="5" markerWidth="7" markerHeight="7" orient="auto-start-reverse"><path d="M 0 0 L 10 5 L 0 10 z" fill="#ddb786"/></marker>
  </defs>
  <style>
    .tekstura-preview-card{background:#17120d}.frame{fill:url(#card-bg);stroke:#6f5a3f;stroke-width:2}.zone{fill:#2f2419;stroke:#ddb786;stroke-width:4;vector-effect:non-scaling-stroke}.turn{fill:#3a2d1d}.outline{fill:#201913;stroke:#8d7655}.tread{stroke:#f1d3a5;stroke-width:2.2;vector-effect:non-scaling-stroke}.winder-envelope{fill:#332617;stroke:#ddb786;stroke-width:4;vector-effect:non-scaling-stroke}.winder-step{fill:#4a351f;stroke:#f1d3a5;stroke-width:2.4;vector-effect:non-scaling-stroke}.route{fill:none;stroke:#ddb786;stroke-width:7;stroke-linecap:round;stroke-linejoin:round;marker-end:url(#arrow);vector-effect:non-scaling-stroke}.caption{font:800 30px system-ui,-apple-system,BlinkMacSystemFont,'Segoe UI',sans-serif;fill:#f5e4c9}.step-no{font:800 18px system-ui,sans-serif;fill:#f5e4c9;text-anchor:middle}
  </style>
  <rect class="frame" x="12" y="12" width="1076" height="736" rx="34"/>
  <text class="caption" x="40" y="58">П-образная с площадкой</text>
  <g><rect class="zone turn" data-zone="turn" x="368.58" y="92" width="362.84" height="171.87"/><rect class="zone" data-zone="flight1" x="368.58" y="263.87" width="162.32" height="420.13"/><rect class="zone" data-zone="flight2" x="569.1" y="263.87" width="162.32" height="420.13"/><line class="tread" x1="368.58" y1="316.39" x2="530.9" y2="316.39"/><line class="tread" x1="368.58" y1="368.9" x2="530.9" y2="368.9"/><line class="tread" x1="368.58" y1="421.42" x2="530.9" y2="421.42"/><line class="tread" x1="368.58" y1="473.94" x2="530.9" y2="473.94"/><line class="tread" x1="368.58" y1="526.45" x2="530.9" y2="526.45"/><line class="tread" x1="368.58" y1="578.97" x2="530.9" y2="578.97"/><line class="tread" x1="368.58" y1="631.48" x2="530.9" y2="631.48"/><line class="tread" x1="569.1" y1="316.39" x2="731.42" y2="316.39"/><line class="tread" x1="569.1" y1="368.9" x2="731.42" y2="368.9"/><line class="tread" x1="569.1" y1="421.42" x2="731.42" y2="421.42"/><line class="tread" x1="569.1" y1="473.94" x2="731.42" y2="473.94"/><line class="tread" x1="569.1" y1="526.45" x2="731.42" y2="526.45"/><line class="tread" x1="569.1" y1="578.97" x2="731.42" y2="578.97"/><line class="tread" x1="569.1" y1="631.48" x2="731.42" y2="631.48"/><path class="route" d="M449.74 668.72 L449.74 177.94 L650.26 177.94 L650.26 668.72"/></g>
</svg>