<svg class="tekstura-preview-card" viewBox="0 0 1100 760" xmlns="http://www.w3.org/2000/svg" role="img" aria-label="stair-landing-card: Г-образная с площадкой">
  <defs>
    <linearGradient id="card-bg" x1="0" y1="0" x2="1" y2="1"><stop stop-color="#17120d"/><stop offset="1" stop-color="#26201a"/></linearGradient>
    <marker id="arrow" viewBox="0 0 10 10" refX="8" refY="5" markerWidth="7" markerHeight="7" orient="auto-start-reverse"><path d="M 0 0 L 10 5 L 0 10 z" fill="#ddb786"/></marker>
  </defs>
  <style>
    .tekstura-preview-card{background:#17120d}.frame{fill:url(#card-bg);stroke:#6f5a3f;stroke-width:2}.zone{fill:#2f2419;stroke:#ddb786;stroke-width:4;vector-effect:non-scaling-stroke}.turn{fill:#3a2d1d}.outline{fill:#201913;stroke:#8d7655}.tread{stroke:#f1d3a5;stroke-width:2.2;vector-effect:non-scaling-stroke}.winder-envelope{fill:#332617;stroke:#ddb786;stroke-width:4;vector-effect:non-scaling-stroke}.winder-step{fill:#4a351f;stroke:#f1d3a5;stroke-width:2.4;vector-effect:non-scaling-stroke}.route{fill:none;stroke:#ddb786;stroke-width:7;stroke-linecap:round;stroke-linejoin:round;marker-end:url(#arrow);vector-effect:non-scaling-stroke}.caption{font:800 30px system-ui,-apple-system,BlinkMacSystemFont,'Segoe UI',sans-serif;fill:#f5e4c9}.step-no{font:800 18px system-ui,sans-serif;fill:#f5e4c9;text-anchor:middle}
  </style>
  <rect class="frame" x="12" y="12" width="1076" height="736" rx="34"/>
  <text class="caption" x="40" y="58">Г-образная с площадкой</text>
  <g><rect class="zone" data-zone="flight1" x="658.53" y="269.6" width="167.73" height="414.4"/><rect class="zone turn" data-zone="turn" x="648.67" y="92" width="177.6" height="177.6"/><rect class="zone" data-zone="flight2" x="273.73" y="92" width="374.93" height="167.73"/><line class="tread" x1="658.53" y1="321.4" x2="826.27" y2="321.4"/><line class="tread" x1="658.53" y1="373.2" x2="826.27" y2="373.2"/><line class="tread" x1="658.53" y1="425" x2="826.27" y2="425"/><line class="tread" x1="658.53" y1="476.8" x2="826.27" y2="476.8"/><line class="tread" x1="658.53" y1="528.6" x2="826.27" y2="528.6"/><line class="tread" x1="658.53" y1="580.4" x2="826.27" y2="580.4"/><line class="tread" x1="658.53" y1="632.2" x2="826.27" y2="632.2"/><line class="tread" x1="327.3" y1="92" x2="327.3" y2="259.73"/><line class="tread" x1="380.86" y1="92" x2="380.86" y2="259.73"/><line class="tread" x1="434.42" y1="92" x2="434.42" y2="259.73"/><line class="tread" x1="487.98" y1="92" x2="487.98" y2="259.73"/><line class="tread" x1="541.54" y1="92" x2="541.54" y2="259.73"/><line class="tread" x1="595.1" y1="92" x2="595.1" y2="259.73"/><path class="route" d="M742.4 668.21 L742.4 180.8 L289.52 175.87"/></g>
</svg>